<svg xmlns="http://www.w3.org/2000/svg" width="280" height="70" viewBox="0 0 280 70">
  <defs>
    <linearGradient id="logoGradient" x1="0%" y1="0%" x2="100%" y2="100%">
      <stop offset="0%" stop-color="#5A7A8A"/>
      <stop offset="100%" stop-color="#E07A7A"/>
    </linearGradient>
    <linearGradient id="textGradient" x1="0%" y1="0%" x2="100%" y2="0%">
      <stop offset="0%" stop-color="#5A7A8A"/>
      <stop offset="100%" stop-color="#E07A7A"/>
    </linearGradient>
  </defs>

  <!-- Logo Icon -->
  <g transform="translate(0, 7)">
    <rect width="56" height="56" rx="12.32" fill="url(#logoGradient)"/>
    <!-- Triangle pattern -->
    <rect x="7.840000000000001" y="7.840000000000001" width="8.96" height="8.96" rx="2.24" fill="white" opacity="1"/>
    <rect x="17.92" y="7.840000000000001" width="8.96" height="8.96" rx="2.24" fill="white" opacity="0.88"/>
    <rect x="28.000000000000004" y="7.840000000000001" width="8.96" height="8.96" rx="2.24" fill="white" opacity="0.76"/>
    <rect x="38.080000000000005" y="7.840000000000001" width="8.96" height="8.96" rx="2.24" fill="white" opacity="0.64"/>
    <rect x="7.840000000000001" y="17.92" width="8.96" height="8.96" rx="2.24" fill="white" opacity="0.88"/>
    <rect x="17.92" y="17.92" width="8.96" height="8.96" rx="2.24" fill="white" opacity="0.76"/>
    <rect x="28.000000000000004" y="17.92" width="8.96" height="8.96" rx="2.24" fill="white" opacity="0.64"/>
    <rect x="7.840000000000001" y="28.000000000000004" width="8.96" height="8.96" rx="2.24" fill="white" opacity="0.76"/>
    <rect x="17.92" y="28.000000000000004" width="8.96" height="8.96" rx="2.24" fill="white" opacity="0.64"/>
    <rect x="7.840000000000001" y="38.080000000000005" width="8.96" height="8.96" rx="2.24" fill="white" opacity="0.64"/>
  </g>

  <!-- Gradient Text: Reserium -->
  <text x="68" y="46.2" font-family="Arial, Calibri, sans-serif" font-size="32" font-weight="600" fill="url(#textGradient)">
    Reserium<tspan font-size="14.4" baseline-shift="super" font-weight="400">TM</tspan>
  </text>
</svg>